<svg version="1.1" id="Layer_1" xmlns="http://www.w3.org/2000/svg" xmlns:xlink="http://www.w3.org/1999/xlink" x="0px" y="0px"
	 width="100%" viewBox="0 0 576 496" enable-background="new 0 0 576 496" xml:space="preserve">
<path fill="#000000" opacity="1.000000" stroke="none" 
	d="
M301.416656,497.000000 
	C300.965088,493.034119 300.884338,489.067810 300.917542,485.102509 
	C300.931000,483.495026 300.721313,481.586548 302.755920,480.932465 
	C304.919952,480.236755 306.514160,481.200287 307.888794,482.939148 
	C309.175049,484.566315 309.776459,486.807037 311.938507,487.759399 
	C313.172943,486.658173 312.512146,485.240356 312.675934,484.007843 
	C312.878082,482.486908 312.901367,480.931213 315.012268,480.906525 
	C317.175293,480.881256 317.232697,482.469360 317.298492,483.988770 
	C317.476868,488.107727 317.623993,492.228058 317.891754,496.673920 
	C315.958344,497.000000 313.916656,497.000000 311.349792,496.668640 
	C309.951660,494.276672 309.051697,492.240051 306.517517,491.047394 
	C306.315155,493.375061 306.157593,495.187531 306.000000,497.000000 
	C304.611115,497.000000 303.222198,497.000000 301.416656,497.000000 
z"/>
<path fill="#000000" opacity="1.000000" stroke="none" 
	d="
M336.466125,497.000000 
	C335.040222,493.862793 334.080444,490.725586 333.122803,487.595276 
	C336.965790,485.177948 337.634277,488.924744 339.319275,490.536316 
	C343.442780,485.580475 343.652771,485.581116 347.386627,490.591705 
	C349.305878,489.379974 349.695312,485.187012 353.817657,487.561096 
	C352.913391,490.386810 351.977753,493.310730 351.021057,496.617310 
	C346.310760,497.000000 341.621490,497.000000 336.466125,497.000000 
z"/>
<path fill="#000000" opacity="1.000000" stroke="none" 
	d="
M251.460632,497.000000 
	C252.100906,492.614166 251.395554,488.141785 251.652206,483.716156 
	C251.742477,482.159607 251.358154,480.151215 253.771484,479.948975 
	C256.195770,479.745880 256.240845,481.592621 256.346313,483.274872 
	C256.428986,484.593506 256.308502,486.360474 257.961121,486.457520 
	C265.218719,486.883606 263.255554,492.069702 263.120728,496.642334 
	C259.307098,497.000000 255.614182,497.000000 251.460632,497.000000 
z"/>
<path fill="#000000" opacity="1.000000" stroke="none" 
	d="
M238.458069,497.000000 
	C238.504395,493.392090 240.788116,492.475861 244.418213,493.177582 
	C240.978973,490.129395 235.905991,487.697632 240.139023,482.495392 
	C242.710144,479.335541 246.242126,480.368134 249.422562,481.885376 
	C249.121796,484.987030 246.809174,485.039154 244.341614,485.814087 
	C248.147461,488.674774 252.440323,490.982361 249.144577,496.633636 
	C245.638718,497.000000 242.277420,497.000000 238.458069,497.000000 
z"/>
<path fill="#000000" opacity="1.000000" stroke="none" 
	d="
M280.460632,497.000000 
	C279.929962,496.017548 279.702789,495.015839 279.820618,494.056458 
	C280.122070,491.601837 278.596558,488.077026 281.755066,487.095276 
	C284.712433,486.176025 288.365753,485.600647 291.143311,488.085144 
	C293.706604,490.378021 293.523621,493.301056 292.104919,496.620697 
	C288.307098,497.000000 284.614166,497.000000 280.460632,497.000000 
z"/>
<path fill="#000000" opacity="1.000000" stroke="none" 
	d="
M320.458069,497.000000 
	C319.132080,493.442841 317.986511,489.732605 322.234924,487.483978 
	C324.683868,486.187805 327.356506,486.164154 329.701599,487.847870 
	C332.846924,490.106110 332.438446,493.129425 331.097656,496.619385 
	C327.638702,497.000000 324.277435,497.000000 320.458069,497.000000 
z"/>
<path fill="#000000" opacity="1.000000" stroke="none" 
	d="
M267.454102,497.000000 
	C264.870178,493.897369 264.361145,490.782318 267.478241,488.067657 
	C269.877411,485.978210 272.900085,485.973572 275.419281,487.489777 
	C278.867065,489.564880 278.886536,492.854584 277.143280,496.628906 
	C273.969391,497.000000 270.938812,497.000000 267.454102,497.000000 
z"/>
<path fill="#000000" opacity="1.000000" stroke="none" 
	d="
M458.288269,362.375244 
	C450.909851,367.758118 443.014771,370.302795 434.200531,370.298706 
	C348.874115,370.259277 263.547729,370.290863 178.221329,370.254333 
	C156.376282,370.244995 141.124207,356.368744 139.333435,334.762512 
	C138.664703,326.693970 141.305588,318.953064 142.812836,311.145233 
	C152.015518,263.473358 161.386063,215.833923 170.706680,168.184845 
	C173.994003,151.379379 177.285110,134.574661 180.598022,117.774231 
	C184.925278,95.829720 198.127731,84.679787 220.512405,84.103241 
	C224.834534,83.991920 229.161987,84.087250 233.857071,84.087250 
	C231.500992,78.890297 233.084839,74.042870 233.925156,69.300140 
	C240.022034,34.889572 270.405151,8.975284 305.511658,9.122437 
	C344.456604,9.285681 373.982605,37.744675 378.370087,72.407677 
	C378.453674,73.067886 378.578918,73.722832 378.685669,74.380089 
	C380.034241,82.683228 379.224060,83.488464 371.236328,83.337357 
	C367.706207,83.270584 366.824615,81.779358 366.528778,78.543434 
	C364.833618,60.003021 356.910614,44.757648 341.830994,33.558243 
	C305.267853,6.403379 252.489365,28.523945 246.090790,73.657776 
	C245.649460,76.770821 245.348679,79.903786 245.010162,82.791832 
	C246.858688,84.552589 248.792892,84.050117 250.554016,84.063118 
	C277.546387,84.262383 304.542267,84.734100 331.530762,84.470184 
	C352.515198,84.264969 373.488037,83.864075 394.469177,84.593880 
	C413.465088,85.254639 427.731018,97.872711 431.261078,116.463852 
	C438.951752,156.966919 446.961700,197.409424 454.861176,237.872772 
	C460.565247,267.090668 466.574677,296.252533 471.907196,325.537872 
	C474.539520,339.994232 470.255768,352.581390 458.288269,362.375244 
M313.500000,97.121712 
	C281.843384,97.125938 250.186737,97.103752 218.530167,97.146919 
	C205.222229,97.165070 195.820404,105.052513 193.271652,118.097832 
	C185.335388,158.718185 177.368286,199.332520 169.441711,239.954773 
	C163.772034,269.010864 158.106339,298.067871 152.520218,327.140076 
	C149.314636,343.823090 160.589233,357.669434 177.424789,357.676514 
	C262.898071,357.712585 348.371338,357.716492 433.844635,357.675171 
	C451.581421,357.666595 462.787170,343.754242 459.382385,326.252747 
	C458.048737,319.397491 456.760895,312.533295 455.418579,305.679718 
	C443.240143,243.501160 431.072784,181.320435 418.857086,119.149185 
	C415.935211,104.278564 407.104156,97.101761 391.975708,97.099609 
	C366.150482,97.095932 340.325226,97.113434 313.500000,97.121712 
z"/>
<path fill="#000000" opacity="1.000000" stroke="none" 
	d="
M121.400558,414.854309 
	C120.657768,427.541962 119.882828,439.819946 119.321892,452.107697 
	C119.173058,455.368317 117.819801,456.456940 114.700470,456.374573 
	C109.209320,456.229492 103.699188,456.110657 98.220451,456.410004 
	C93.943314,456.643738 92.750397,454.773224 92.749283,450.855194 
	C92.745972,439.215149 91.985878,427.602661 90.958427,416.009949 
	C90.873016,415.046265 90.563995,414.102448 90.278061,412.773987 
	C87.030457,412.945740 83.934761,413.097504 80.840675,413.276855 
	C78.296326,413.424316 76.778183,412.668182 76.692329,409.710938 
	C76.475258,402.233398 76.110397,394.758179 75.668709,387.290070 
	C75.464935,383.844788 76.821762,382.611328 80.287819,382.621429 
	C110.424828,382.709198 140.562286,382.704987 170.699310,382.619568 
	C173.729309,382.610992 175.176071,383.711639 175.952621,386.600861 
	C177.146408,391.042542 178.714584,395.383636 180.419739,400.687622 
	C183.371140,395.605957 184.306305,390.910309 185.694321,386.397095 
	C186.254150,384.576813 186.749817,382.764618 189.102341,382.747345 
	C194.565002,382.707214 200.028137,382.734589 205.328979,382.734589 
	C206.258224,385.296234 204.794586,386.735962 203.994858,388.284668 
	C199.718246,396.566559 195.486221,404.876770 190.960587,413.022614 
	C188.529617,417.398163 187.697601,422.070770 187.391937,426.877014 
	C186.875244,435.001801 186.457962,443.139496 186.298889,451.277618 
	C186.223221,455.148590 184.764420,456.573029 180.897415,456.408875 
	C175.079559,456.161926 169.243027,456.264435 163.416428,456.351990 
	C160.423294,456.396942 158.846893,455.465210 158.660858,452.141174 
	C158.140976,442.851990 157.380814,433.575470 156.640976,424.299927 
	C156.483322,422.323303 156.378906,420.215332 155.622513,418.434296 
	C150.751068,406.963257 144.811081,396.053314 137.986374,385.189789 
	C135.850510,388.431183 136.470001,391.616425 136.338501,394.668335 
	C136.130951,399.484863 136.152100,404.297333 135.642654,409.118744 
	C135.264175,412.700745 133.684555,413.276947 130.489227,413.368469 
	C127.499176,413.454102 124.008080,410.667297 121.400558,414.854309 
z"/>
<path fill="#000000" opacity="1.000000" stroke="none" 
	d="
M370.900208,389.698608 
	C370.328064,401.116150 369.825439,412.077423 369.293365,423.037231 
	C369.149902,425.992035 369.950256,427.854645 373.449982,427.677521 
	C376.691986,427.513428 377.861053,425.919830 377.657623,422.861908 
	C377.006378,413.073151 376.371216,403.283173 375.786133,393.490295 
	C375.647247,391.165192 375.801941,388.823334 375.688538,386.495667 
	C375.552002,383.693054 376.877716,382.644531 379.574890,382.662598 
	C388.237823,382.720612 396.901703,382.723206 405.564606,382.660614 
	C408.507050,382.639374 409.295135,384.148529 409.091461,386.769226 
	C407.441254,408.002258 406.426819,429.266479 406.080627,450.561066 
	C406.010956,454.847076 404.294678,456.783081 399.655212,456.437195 
	C394.187622,456.029602 388.663910,456.246368 383.169159,456.381531 
	C380.080353,456.457489 378.372772,455.472351 378.655701,452.127533 
	C378.725464,451.302368 378.698700,450.454803 378.598511,449.631897 
	C378.146912,445.922668 377.974640,441.934265 372.261383,444.021393 
	C371.508881,444.296295 370.405792,443.611633 369.233398,443.312225 
	C367.638611,445.990509 368.269867,448.885223 368.316895,451.607727 
	C368.373840,454.902863 367.382507,456.511200 363.771454,456.411102 
	C356.945801,456.221985 350.110046,456.280457 343.280914,456.388947 
	C340.213623,456.437683 339.048492,455.334412 338.579803,452.133606 
	C337.028503,441.539368 338.085114,430.861115 337.044434,420.239258 
	C335.942780,408.995697 335.892303,397.651855 335.224457,386.361145 
	C335.066833,383.696075 336.038544,382.673523 338.552216,382.677582 
	C348.215057,382.693207 357.878052,382.657806 367.540710,382.698761 
	C372.704895,382.720642 370.785889,386.552948 370.900208,389.698608 
z"/>
<path fill="#000000" opacity="1.000000" stroke="none" 
	d="
M262.911682,438.727997 
	C262.762787,422.113861 262.114868,405.998413 260.862274,389.903809 
	C260.300629,382.687256 260.428955,382.664246 267.650757,382.654999 
	C280.975281,382.637970 294.300995,382.736023 307.623657,382.574707 
	C311.993073,382.521790 313.370087,383.623627 312.619812,388.391815 
	C311.565369,395.092712 311.521271,401.973877 311.362000,408.785370 
	C311.280823,412.257568 309.930237,413.642609 306.544373,413.342651 
	C303.894348,413.107880 301.218750,413.124817 298.580048,412.813568 
	C297.026672,412.630341 295.486725,412.207367 294.722992,414.001770 
	C294.127594,415.400696 294.000214,417.011566 294.785767,418.353485 
	C295.736206,419.977081 297.332825,419.319305 298.828766,419.193573 
	C302.593506,418.877197 306.374054,418.748566 310.400299,418.531067 
	C310.712311,423.686005 308.974945,427.885406 308.195129,432.222382 
	C307.724976,434.837006 305.516479,434.322662 303.788116,434.232178 
	C301.808105,434.128510 299.850464,433.653259 297.873993,433.414642 
	C294.405457,432.995911 293.706238,435.294708 293.397552,438.014313 
	C293.062683,440.964172 294.676727,441.742950 297.251801,441.850677 
	C301.900146,442.045227 306.513947,441.797150 311.719421,440.783386 
	C311.774323,446.031128 310.239899,450.520844 308.713379,454.959259 
	C308.128754,456.658966 306.219452,456.337494 304.753693,456.339966 
	C292.595123,456.360016 280.435730,456.274231 268.278381,456.396729 
	C264.777496,456.431976 263.513641,455.005646 263.647614,451.634766 
	C263.812775,447.479553 263.762238,443.311340 262.911682,438.727997 
z"/>
<path fill="#000000" opacity="1.000000" stroke="none" 
	d="
M515.027649,384.245789 
	C516.623840,382.178375 518.574585,382.696686 520.335754,382.690430 
	C534.148865,382.641144 547.962952,382.737030 561.774963,382.604889 
	C565.751404,382.566864 567.415710,383.293396 566.671997,387.995178 
	C565.638855,394.526672 565.411011,401.234253 565.422791,407.865387 
	C565.430847,412.365234 563.728027,413.890137 559.486633,413.312988 
	C557.020508,412.977448 554.512451,412.943665 552.050415,412.586578 
	C548.911865,412.131378 548.395325,413.930664 548.326538,416.424500 
	C548.249207,419.228363 549.674377,419.886780 552.127808,419.419556 
	C556.196899,418.644653 560.278076,418.278320 564.552429,419.069214 
	C564.608521,423.665894 562.913879,427.723145 562.288757,431.956024 
	C562.000977,433.904449 560.671265,434.377380 559.051697,434.242828 
	C556.740723,434.050812 554.442505,433.696503 552.142090,433.387909 
	C548.867554,432.948608 547.702698,434.731750 547.379944,437.663788 
	C547.040283,440.749817 548.473145,441.798828 551.369568,441.904175 
	C556.001343,442.072601 560.599365,441.882172 565.502869,440.673615 
	C565.951721,446.002380 564.026733,450.273956 562.875671,454.650024 
	C562.411804,456.413269 560.595398,456.332336 559.086121,456.332733 
	C546.770752,456.336121 534.454956,456.274811 522.140198,456.359253 
	C518.945679,456.381165 517.774658,455.091705 517.669800,451.926788 
	C517.080811,434.152924 516.307007,416.385254 515.682556,398.612427 
	C515.519226,393.964386 514.291687,389.382202 515.027649,384.245789 
z"/>
<path fill="#000000" opacity="1.000000" stroke="none" 
	d="
M451.129944,390.712524 
	C450.598480,388.085724 448.786011,386.199768 449.177368,383.640717 
	C451.053925,382.054993 453.303925,382.707001 455.363098,382.687531 
	C463.691040,382.608795 472.021698,382.760040 480.348328,382.630371 
	C483.704834,382.578094 484.986664,383.897369 485.391937,387.226715 
	C486.103821,393.074615 486.632019,399.008209 489.009399,405.424408 
	C491.441223,398.752045 492.142700,392.509216 493.388885,386.427979 
	C493.990723,383.491211 495.245239,382.493561 498.036652,382.650787 
	C502.820526,382.920227 507.651123,382.188721 513.171631,383.243317 
	C510.733337,390.894989 508.529510,398.316559 506.004883,405.627350 
	C500.844971,420.569305 496.235046,435.679749 492.099335,450.927734 
	C491.001678,454.974640 489.208557,456.617737 484.856537,456.434601 
	C468.628326,455.751862 472.783112,459.359558 467.782074,443.432831 
	C462.300385,425.975342 457.466492,408.314453 451.129944,390.712524 
z"/>
<path fill="#000000" opacity="1.000000" stroke="none" 
	d="
M70.484955,412.049072 
	C64.371559,411.285553 61.758564,414.163452 63.626019,419.487579 
	C64.607864,422.286835 66.320457,424.827301 67.675613,427.498505 
	C75.772385,443.458405 66.632851,458.322083 48.714249,458.344666 
	C37.129612,458.359283 37.143112,458.355927 34.364437,447.157990 
	C33.890179,445.246765 33.144085,443.386902 33.762215,441.384186 
	C35.725384,440.328583 37.470860,441.462616 39.109737,441.917389 
	C41.792835,442.661896 44.230350,442.688141 45.817799,440.296692 
	C47.580845,437.640717 47.068195,434.665222 45.015324,432.441010 
	C42.088264,429.269745 38.774643,426.454102 35.611988,423.501709 
	C31.252357,419.431885 27.937702,414.706543 26.749809,408.766296 
	C23.575439,392.892487 32.945557,380.769409 49.401119,379.783081 
	C55.521858,379.416168 61.675369,379.405975 67.812943,380.573578 
	C71.381195,381.252380 73.082008,382.716125 73.189461,386.383667 
	C73.394043,393.366486 73.872108,400.341034 74.112526,407.323273 
	C74.189636,409.562683 74.663094,412.350983 70.484955,412.049072 
z"/>
<path fill="#000000" opacity="1.000000" stroke="none" 
	d="
M243.257019,395.928619 
	C242.600281,410.039948 242.005707,423.667480 241.262436,437.286926 
	C241.045044,441.270416 241.870209,443.282288 246.534042,442.198792 
	C250.372208,441.307159 254.449692,441.993927 258.780762,440.585876 
	C259.522247,446.146545 257.374298,450.597839 256.464081,455.178497 
	C256.191315,456.551086 254.233887,456.329956 252.914948,456.332031 
	C240.415634,456.351837 227.915451,456.277191 215.417450,456.410034 
	C211.770020,456.448792 210.897827,454.653534 210.852005,451.477875 
	C210.688766,440.161255 210.593414,428.851288 209.881210,417.536621 
	C209.254684,407.583282 208.962631,397.603485 207.894241,387.682770 
	C207.499512,384.017181 208.577957,382.515228 212.434616,382.597412 
	C221.096786,382.782074 229.768280,382.772766 238.430634,382.589691 
	C242.052521,382.513184 243.689163,383.686890 243.374268,387.445770 
	C243.152313,390.095612 243.287018,392.775360 243.257019,395.928619 
z"/>
<path fill="#000000" opacity="1.000000" stroke="none" 
	d="
M444.284302,452.854980 
	C444.261475,455.800354 442.706421,456.336273 440.629150,456.331238 
	C433.311127,456.313446 425.992188,456.265472 418.675262,456.359314 
	C415.579285,456.399017 414.759186,454.864899 414.657104,452.051208 
	C414.054993,435.455017 413.354767,418.862244 412.636749,402.270508 
	C412.414276,397.130035 412.063568,391.994385 411.712891,386.860504 
	C411.514191,383.951508 412.628326,382.610657 415.699982,382.643097 
	C424.846649,382.739746 433.996216,382.747711 443.142273,382.619995 
	C446.513458,382.572937 447.441956,384.079376 447.276733,387.187714 
	C446.289764,405.755829 445.382477,424.328247 444.485657,442.901031 
	C444.333344,446.055023 444.360840,449.217712 444.284302,452.854980 
z"/>
<path fill="#000000" opacity="1.000000" stroke="none" 
	d="
M306.942444,136.731415 
	C315.827637,136.732437 324.002747,135.439621 331.788940,132.188889 
	C338.735504,129.288696 340.498810,126.624664 340.359894,119.183968 
	C351.424042,120.794228 362.479370,122.380898 372.782257,126.528053 
	C378.168701,128.696228 381.395905,134.285583 385.049194,138.759506 
	C398.438568,155.156570 407.241241,173.848389 411.894043,194.495575 
	C412.292999,196.265945 412.721680,198.044022 412.058685,200.074783 
	C406.928223,201.131775 401.922241,198.991882 396.797363,199.265289 
	C391.812866,199.531235 386.752136,198.971237 381.828766,199.594467 
	C377.680878,200.119553 376.393188,198.412292 376.048798,194.891190 
	C375.793060,192.276611 375.515137,189.664185 375.053925,187.075241 
	C376.196228,234.384033 380.429749,281.436554 386.574921,328.035614 
	C384.604919,329.787659 382.687073,329.276093 380.917511,329.277008 
	C330.936890,329.303131 280.956146,329.246216 230.975876,329.378784 
	C226.336304,329.391083 224.849655,328.260925 225.633652,323.425232 
	C229.399979,300.194794 231.144867,276.723755 233.463577,253.324768 
	C234.382019,244.056534 234.846252,234.738770 235.341248,225.434189 
	C236.126556,210.672791 236.335968,195.882172 237.332474,181.110123 
	C236.659454,186.195160 235.952667,191.276047 235.329910,196.367233 
	C235.077545,198.430359 234.451019,199.908173 231.969284,199.689926 
	C221.811188,198.796646 211.683762,199.269775 201.570770,200.403580 
	C200.950119,200.473160 200.301743,200.295670 199.058243,200.173279 
	C199.937195,192.370270 202.139587,185.125763 204.701157,178.019363 
	C211.049774,160.406754 220.668839,144.768860 233.445526,131.047974 
	C236.509369,127.757690 239.970947,125.693138 244.365784,124.596245 
	C253.347076,122.354660 262.354797,120.400017 272.104523,118.922302 
	C269.959656,127.091354 274.993896,130.023926 280.561188,132.419617 
	C288.821228,135.974045 297.559479,136.906631 306.942444,136.731415 
M236.293381,316.668213 
	C238.485596,316.668213 240.677795,316.668213 242.870010,316.668213 
	C239.858215,315.096222 236.853073,315.084778 233.796707,316.329407 
	C234.399506,316.437653 235.002304,316.545929 236.293381,316.668213 
z"/>
</svg>